<?xml version="1.0" encoding="UTF-8" standalone="no"?>
<!DOCTYPE svg PUBLIC "-//W3C//DTD SVG 1.1//EN" "http://www.w3.org/Graphics/SVG/1.1/DTD/svg11.dtd">
<svg width="100%" height="100%" viewBox="0 0 2732 2048" version="1.1" xmlns="http://www.w3.org/2000/svg" xmlns:xlink="http://www.w3.org/1999/xlink" xml:space="preserve" xmlns:serif="http://www.serif.com/" style="fill-rule:evenodd;clip-rule:evenodd;stroke-linecap:round;stroke-linejoin:round;stroke-miterlimit:1.5;">
    <g>
        <path id="アートボード1" d="M2765.04,0L2765.04,2048C2765.04,2066.25 2750.25,2081.04 2732,2081.04L-0,2081.04C-18.25,2081.04 -33.044,2066.25 -33.044,2048L-33.044,-0C-33.044,-18.25 -18.25,-33.044 0,-33.044L2732,-33.044C2750.25,-33.044 2765.04,-18.25 2765.04,0Z" style="fill:none;"/>
        <g transform="matrix(1,0,0,1,60.2579,-18.7234)">
            <g transform="matrix(118.018,0,0,118.018,2289,1586.79)">
            </g>
            <text x="1558.47px" y="1586.79px" style="font-family:'HiraginoSans-W5', 'Hiragino Sans', sans-serif;font-weight:500;font-size:118.018px;fill:rgb(52,24,75);">デ<tspan x="1660.56px 1762.64px 1864.73px 1966.81px 2068.9px 2170.99px " y="1586.79px 1586.79px 1586.79px 1586.79px 1586.79px 1586.79px ">ィープミッド</tspan></text>
        </g>
        <path d="M1323.52,1011.47C1323.74,1009.53 1325.49,1008.13 1327.43,1008.34C1329.37,1008.56 1330.77,1010.31 1330.55,1012.25C1326.03,1052.56 1319.66,1093.47 1319.5,1094.48C1319.32,1095.75 1309.32,1164.42 1308.3,1170.08C1307.95,1172 1306.11,1173.28 1304.18,1172.93C1302.26,1172.58 1300.99,1170.74 1301.34,1168.82C1302.37,1163.12 1312.51,1093.44 1312.51,1093.44L1312.51,1093.4C1312.51,1093.4 1318.96,1052.13 1323.52,1011.47Z"/>
        <path d="M2042.38,1197.77C2043.01,1195.92 2045.02,1194.93 2046.87,1195.56C2048.72,1196.19 2049.71,1198.2 2049.08,1200.05C2048.73,1201.06 2048.96,1202.93 2049.2,1204.87C2049.64,1208.45 2050.5,1212.24 2050.73,1212.97C2052.36,1218.27 2053.32,1219.03 2057.47,1229.11C2058.21,1230.92 2057.35,1232.99 2055.55,1233.73C2053.74,1234.47 2051.67,1233.61 2050.93,1231.81C2046.62,1221.35 2045.66,1220.55 2043.97,1215.06C2043.66,1214.07 2042.32,1208.29 2041.97,1203.67C2041.79,1201.25 2041.93,1199.09 2042.38,1197.77Z"/>
        <g>
            <clipPath id="_clip1">
                <path d="M2441.49,685.286C2474.65,693.955 2498.89,699.388 2528.19,715.614C2460.37,943.624 2392.29,1170.67 2312.91,1392.87C2290.3,1387.47 2271.81,1380.33 2251.03,1368.52L2280.98,1360.29C2294.84,1330.17 2305.75,1297.95 2305.78,1263.8C2295.23,1283.17 2259.3,1319.3 2200.91,1316.5C2047.92,1309.17 2039.27,1023.25 2159.23,996.326C2254.99,974.837 2321,1183.54 2317.02,1227.57C2374.94,1063.92 2421.34,894.1 2466.27,722.089L2441.49,685.286ZM2150.18,1086.35C2107.53,1098.69 2108.67,1158.03 2124.39,1205.37C2135.53,1238.89 2167.21,1291.94 2193.48,1286.23C2217.78,1280.94 2226.04,1208.74 2220.55,1169.04C2214.84,1127.75 2181.26,1077.37 2150.18,1086.35ZM1966,1157.14C1984.32,1091.47 1993.49,1022.35 2004.93,955C1995.86,947.129 1989.87,941.48 1980.05,933.448C2013.62,935.633 2040.87,939.081 2072.2,948.59C2064.67,976.501 2058.33,1004.26 2052.87,1032.07C2040.44,1061.49 2034.14,1097.65 2035.6,1139.02C2032.8,1160.2 2030.26,1181.56 2027.86,1203.2C2027.86,1203.2 1996.78,1196.69 1980.66,1193.84C1976.16,1181.54 1971.26,1169.2 1966,1157.14ZM2049.43,832.541C2033.81,829.965 2019.39,818.043 2021.74,793.948C2023.62,774.604 2040.05,760.428 2057.75,761.517C2072.6,762.431 2094.59,777.914 2091.74,798.015C2087.45,828.234 2068.77,835.73 2049.43,832.541ZM1795.58,1228.13C1797.9,1217.42 1827.78,1082.54 1860.8,1077.73C1895.32,1072.7 1969.61,1231.73 1986.32,1312.63L1971.65,1316.55C1967.83,1298.22 1915.39,1187.21 1868.88,1193.48C1821.65,1199.85 1820.49,1331.1 1831.51,1351.13L1824.54,1352.87C1818.17,1330.75 1759.96,1213.88 1720.33,1224.78C1692.81,1232.34 1692.28,1396.45 1697.98,1397.38L1676.25,1405.46L1626.67,1289.73L1580.64,1163.36L1564.33,1157.65C1583.44,1149.77 1602.54,1144.15 1621.65,1141.18C1640.58,1176.21 1655.92,1212.37 1669.24,1249.17C1669.24,1249.17 1673.51,1137.05 1691.02,1127.01C1718.87,1111.04 1795.52,1216.81 1795.58,1228.13C1795.48,1228.57 1795.43,1228.8 1795.43,1228.8C1795.53,1228.64 1795.58,1228.41 1795.58,1228.13ZM1570.56,1254.33C1545.62,1286.32 1486.41,1319.78 1460.64,1315.16C1400.3,1304.35 1406.93,1189.53 1411.58,1176.08L1411.76,1175.73C1411.7,1175.78 1411.64,1175.89 1411.58,1176.08C1342.01,1311.9 1311.35,1476.94 1289.88,1624.1C1264.98,1612.43 1239.11,1603.93 1209.36,1599.86L1251.72,1586.75C1307.88,1383.31 1344.78,1173.12 1387.37,964.792C1375.42,958.45 1364.68,950.258 1359.96,941.802C1387.38,949.141 1415.51,959.139 1440.58,971.853C1421.96,1014.2 1423.9,1050.34 1423.82,1088.21C1431.72,1060.71 1529.09,980.82 1588.19,998.92C1626.43,1010.63 1639.6,1051.95 1635.17,1101.06C1608.48,1104.75 1584.21,1111.53 1561.94,1120.82C1564.31,1105.56 1563.46,1092.48 1558.01,1084.47C1535.94,1052.07 1487.72,1084.44 1459.4,1126.21C1436.45,1160.08 1415.03,1249.02 1439.7,1267.69C1457.74,1281.34 1522.83,1216.95 1539.45,1185.12C1540.54,1183.02 1541.62,1180.89 1542.66,1178.74L1542.27,1177.67L1570.56,1254.33ZM1097.95,1182.91C1138.21,1191.14 1207.85,1168.44 1223.98,1140.35C1237.42,1162.41 1254.83,1178.09 1283.07,1186.41C1217.8,1236.88 1152.29,1262.69 1082.52,1255.49C1089.44,1240.71 1095.3,1223.64 1097.55,1205.39C1098.5,1197.69 1098.6,1190.19 1097.95,1182.91ZM970.559,1053.89C1096.81,903.497 1285.8,929.674 1281.46,1066.02C1215.07,1075.34 1139.91,1087.76 1064.38,1111.82C1058.48,1105.36 1051.99,1099.28 1045.05,1093.61C1066.41,1087.89 1089,1082.39 1112.77,1077.59C1137.1,1072.68 1162.68,1068.51 1189.44,1065.6C1187.32,1059.96 1179.97,1040.55 1154.01,1025.91C1107.01,999.393 1041.88,1054.76 1026.65,1080.15C1018.19,1074.61 1009.32,1069.6 1000.25,1065.16C991.34,1060.8 981.306,1057.06 970.559,1053.89ZM682.521,1204.37C681.495,1116.4 826.969,1075.43 885.329,1084.77C1025.44,1107.18 1058.46,1182.9 1025.55,1261.38C935.839,1226.82 820.935,1198.34 737.591,1199.87C751.688,1264.92 862.844,1340.83 939.82,1298.78L963.312,1364.93C912.246,1391.52 684.388,1364.44 682.521,1204.37ZM777.892,1172.1C833.931,1185.18 889.377,1198.2 942.55,1218.28C942.55,1218.28 952.642,1191.01 922.464,1159.08C882.774,1117.07 780.073,1154.66 777.892,1172.1ZM719.759,1082.47C686.557,1104.21 654.985,1136.33 646.936,1182.74C646.073,1187.72 645.501,1192.67 645.205,1197.6C586.737,1274.42 522.935,1334.61 486.519,1355.02L278.206,684.47C371.141,638.007 701.038,622.124 767.288,832.576C790.809,907.294 764.957,997.671 719.759,1082.47ZM439.161,839.939C456.415,958.718 478.019,1073.36 502.952,1184.85C502.952,1184.85 609.432,1114.85 648.883,1039.72C688.433,964.407 680.795,910.847 676.289,895.641C668.912,870.747 633.937,834.213 580.581,824.593C520.507,813.762 439.161,839.939 439.161,839.939Z"/>
            </clipPath>
            <g clip-path="url(#_clip1)">
                <rect x="109.341" y="1021.3" width="2543.14" height="669.502" style="fill:rgb(221,173,255);"/>
                <g transform="matrix(1.04123,0,0,1.10164,-7.33917,-46.3004)">
                    <rect x="178.014" y="455.547" width="2323.2" height="705.021" style="fill:url(#_Linear2);"/>
                </g>
                <g transform="matrix(1,0,0,1,-48.9171,0.981275)">
                    <path d="M242.177,1276.19C228.516,1278.13 215.852,1268.61 213.915,1254.95C211.978,1241.29 221.496,1228.62 235.157,1226.68C330.09,1213.22 1032.62,1184.62 1431.73,1184.16C1833.12,1183.71 2548.57,1216.98 2645.21,1223.75C2658.98,1224.71 2669.37,1236.67 2668.41,1250.43C2667.44,1264.2 2655.48,1274.59 2641.72,1273.63C2545.36,1266.87 1832,1233.71 1431.79,1234.16C1035.01,1234.62 336.557,1262.81 242.177,1276.19Z" style="fill:rgb(181,118,255);"/>
                </g>
            </g>
        </g>
        <g>
            <clipPath id="_clip3">
                <path d="M1654.16,1101.76C1651.33,1105.87 1649.66,1109.27 1649.67,1110.74L1644.71,1099.89C1641.5,1100.24 1638.32,1100.63 1635.17,1101.06C1639.6,1051.95 1626.43,1010.63 1588.19,998.92C1529.09,980.82 1431.72,1060.71 1423.82,1088.21C1423.9,1050.34 1421.96,1014.2 1440.58,971.853C1415.51,959.139 1387.38,949.141 1359.96,941.802C1364.68,950.258 1375.42,958.45 1387.37,964.792C1344.78,1173.12 1307.88,1383.31 1251.72,1586.75L1209.36,1599.86C1239.11,1603.93 1264.98,1612.43 1289.88,1624.1C1311.35,1476.94 1342.01,1311.9 1411.58,1176.08C1406.93,1189.53 1400.3,1304.35 1460.64,1315.16C1486.41,1319.78 1545.62,1286.32 1570.56,1254.33L1575.84,1268.65C1544.27,1299.6 1479.05,1346.79 1437.35,1319.97C1389.31,1289.07 1399.71,1237.23 1402.3,1211.68C1350.71,1350.44 1316.46,1497.06 1301.3,1644.85C1252.37,1622.84 1209.06,1612.69 1161.31,1602.67C1183.12,1592.9 1214.58,1582.54 1240.79,1575.82C1293.44,1373.7 1330.32,1170.85 1363.56,963.204C1347.67,948.521 1337.09,933.837 1329.76,919.153C1377.37,923.564 1418.45,942.019 1460.75,962.091C1443.05,993.471 1437.61,1020.5 1434.17,1054.94C1475,995.506 1542.16,974.117 1578.86,975.206C1652.98,977.405 1663.38,1052.81 1654.16,1101.76ZM1094.91,1165.55C1151.68,1172.8 1195.24,1156.35 1223.02,1112.83C1245.09,1143.02 1271.21,1164.29 1301.49,1175.67C1300.51,1180.88 1299.53,1186.09 1298.54,1191.3C1232.43,1248.19 1154.03,1276.09 1076.03,1268.2C1078.24,1264.19 1080.43,1259.94 1082.52,1255.49C1152.29,1262.69 1217.8,1236.88 1283.07,1186.41C1254.83,1178.09 1237.42,1162.41 1223.98,1140.35C1207.85,1168.44 1138.21,1191.14 1097.95,1182.91C1097.42,1176.98 1096.39,1171.19 1094.91,1165.55ZM956.045,1050.04C1018,936.433 1177.19,917.916 1229,939.585C1308.67,972.906 1299.7,1064.13 1294.65,1077.19C1214.78,1086.89 1141.35,1103.83 1074.42,1123.97C1071.31,1119.79 1067.95,1115.73 1064.38,1111.82C1139.91,1087.76 1215.07,1075.34 1281.46,1066.02C1285.8,929.674 1096.81,903.497 970.559,1053.89C965.847,1052.49 960.997,1051.21 956.045,1050.04ZM1032.17,1278.02C943.024,1246.76 845.549,1223.13 758.549,1212.19C798.995,1285.25 893.744,1318.83 950.82,1273.63C956.428,1312.68 971.069,1349.42 994.945,1378.68C929.757,1397.74 867.225,1392.65 805.959,1374.04C715.369,1346.53 653.933,1250.42 664.884,1193.9C677.72,1127.65 744.278,1078.45 825.649,1068.75C941.684,1054.92 1020.81,1103.1 1048.02,1144.81C1071.1,1180.19 1053.71,1267.63 1032.17,1278.02ZM682.521,1204.37C684.388,1364.44 912.246,1391.52 963.312,1364.93L939.82,1298.78C862.844,1340.83 751.688,1264.92 737.591,1199.87C820.935,1198.34 935.839,1226.82 1025.55,1261.38C1058.46,1182.9 1025.44,1107.18 885.329,1084.77C826.969,1075.43 681.495,1116.4 682.521,1204.37ZM767.895,1057.19C753.25,1063.37 736.302,1071.63 719.759,1082.47C764.957,997.671 790.809,907.294 767.288,832.576C701.038,622.124 371.141,638.007 278.206,684.47L486.519,1355.02C522.935,1334.61 586.737,1274.42 645.205,1197.6C644.344,1211.95 645.825,1226.07 649.282,1239.77C621.392,1284.5 464.641,1403.88 466.742,1397.19L228.603,657.405C228.603,657.405 345.026,614.91 469.653,613.328C594.28,611.746 698.369,662.272 750.399,727.537C802.609,793.029 804.529,844.771 805.437,897.997C806.345,951.143 777.368,1032.68 767.895,1057.19ZM2014.44,777.875C2027.06,750.378 2051.66,744.922 2076.21,752.216C2104.14,760.514 2109.61,787.085 2103.04,810.283C2095.42,837.17 2067.61,851.792 2035.07,840.371C2012.86,832.573 2004.34,799.871 2014.44,777.875ZM2049.43,832.541C2068.77,835.73 2087.45,828.234 2091.74,798.015C2094.59,777.914 2072.6,762.431 2057.75,761.517C2040.05,760.428 2023.62,774.604 2021.74,793.948C2019.39,818.043 2033.81,829.965 2049.43,832.541ZM1980.66,1193.84C1996.78,1196.69 2027.86,1203.2 2027.86,1203.2C2030.26,1181.56 2032.8,1160.2 2035.6,1139.02C2036.05,1151.91 2037.26,1165.31 2039.27,1179.16C2040.11,1184.95 2041.19,1190.61 2042.5,1196.16C2042.11,1203.84 2041.81,1211.5 2041.6,1219.13L1985.79,1208.34C1984.14,1203.53 1982.43,1198.69 1980.66,1193.84ZM2409.12,657.726C2454.14,666.953 2504.27,685.131 2546.77,703.733C2477.86,942.644 2407.18,1180.75 2319.53,1411.17C2282.59,1398.47 2246.85,1382.6 2211.79,1364.92L2271.68,1348.58L2294.13,1287.65C2239.11,1358.78 2076.1,1345.07 2064.72,1153C2056.69,1017.35 2113.7,1000.03 2141.76,987.958C2223.14,952.948 2317.31,1067.64 2322.63,1192.12C2368.33,1038.63 2411.81,877.585 2446.74,717.306C2431.15,700.034 2418.29,680.447 2409.12,657.726ZM2441.49,685.286L2466.27,722.089C2421.34,894.1 2374.94,1063.92 2317.02,1227.57C2321,1183.54 2254.99,974.837 2159.23,996.326C2039.27,1023.25 2047.92,1309.17 2200.91,1316.5C2259.3,1319.3 2295.23,1283.17 2305.78,1263.8C2305.75,1297.95 2294.84,1330.17 2280.98,1360.29L2251.03,1368.52C2271.81,1380.33 2290.3,1387.47 2312.91,1392.87C2392.29,1170.67 2460.37,943.624 2528.19,715.614C2498.89,699.388 2474.65,693.955 2441.49,685.286ZM1956.6,1136.69C1970.5,1076.21 1983.96,1018.65 1988.94,955.214L1945.27,919.91C1995.25,920.023 2039.1,924.428 2087.18,936.111C2079.96,957.672 2078.7,975.137 2073.08,996.798C2065.21,1007.11 2058.43,1018.92 2052.87,1032.07C2058.33,1004.26 2064.67,976.501 2072.2,948.59C2040.87,939.081 2013.62,935.633 1980.05,933.448C1989.87,941.48 1995.86,947.129 2004.93,955C1993.49,1022.35 1984.32,1091.47 1966,1157.14C1962.98,1150.21 1959.85,1143.38 1956.6,1136.69ZM1526.32,1158.58C1559.4,1141.11 1591.15,1130.12 1627.98,1123.57C1643.66,1149.81 1654.31,1176.82 1663.35,1204.07C1662.11,1195.12 1654.99,1113.69 1689.12,1108.32C1719.82,1103.49 1790.3,1180.73 1791.06,1197.71C1790.68,1181.45 1812.62,1066.57 1856.47,1062.29C1929.87,1055.12 1998.13,1290.9 1993.62,1321.45L1961.54,1330.54C1962.4,1316.65 1909.45,1194.12 1871.85,1202.13C1827.08,1211.67 1835.95,1342.63 1840.09,1358.5L1820.73,1364.17C1820.12,1354.89 1765.5,1237.72 1730.88,1240.59C1696.41,1243.45 1709.87,1401.95 1714.67,1409.22L1668.54,1423.88C1632.12,1338.8 1590.86,1254.45 1564.25,1167.05L1526.32,1158.58ZM1795.58,1228.13C1795.52,1216.81 1718.87,1111.04 1691.02,1127.01C1673.51,1137.05 1669.24,1249.17 1669.24,1249.17C1655.92,1212.37 1640.58,1176.21 1621.65,1141.18C1602.54,1144.15 1583.44,1149.77 1564.33,1157.65L1580.64,1163.36L1626.67,1289.73L1676.25,1405.46L1697.98,1397.38C1692.28,1396.45 1692.81,1232.34 1720.33,1224.78C1759.96,1213.88 1818.17,1330.75 1824.54,1352.87L1831.51,1351.13C1820.49,1331.1 1821.65,1199.85 1868.88,1193.48C1915.39,1187.21 1967.83,1298.22 1971.65,1316.55L1986.32,1312.63C1969.61,1231.73 1895.32,1072.7 1860.8,1077.73C1827.78,1082.54 1797.9,1217.42 1795.58,1228.13Z"/>
            </clipPath>
            <g clip-path="url(#_clip3)">
                <rect x="99.93" y="407.521" width="2563.2" height="1308.3" style="fill:url(#_Linear4);"/>
                <g transform="matrix(1,0,0,0.884603,0,224.638)">
                    <rect x="17.835" y="1118.44" width="2728.4" height="828.209" style="fill:rgb(233,170,61);"/>
                </g>
            </g>
        </g>
        <g>
            <path d="M1312.37,1099.35C1316.09,1068.72 1319.81,1038.03 1326.33,1007.82C1321.93,1038.29 1318.03,1068.83 1313.73,1099.23C1313.28,1099.27 1312.83,1099.31 1312.37,1099.35ZM1305.75,1151.5C1308.66,1134.15 1311.26,1116.71 1313.73,1099.23C1315.05,1099.11 1316.36,1099 1317.64,1098.89C1315.54,1117.55 1313.04,1136.08 1307.98,1152.71C1307.24,1152.31 1306.5,1151.91 1305.75,1151.5ZM2150.18,1086.35C2181.26,1077.37 2214.84,1127.75 2220.55,1169.04C2226.04,1208.74 2217.78,1280.94 2193.48,1286.23C2167.21,1291.94 2135.53,1238.89 2124.39,1205.37C2108.67,1158.03 2107.53,1098.69 2150.18,1086.35ZM2152.6,1107.56C2121.62,1119.18 2120.25,1171.81 2137.2,1209.78C2149.3,1236.88 2173.63,1281.56 2190.4,1277C2208.16,1272.15 2205.78,1208.62 2200.56,1174.89C2195.13,1139.8 2175.17,1099.09 2152.6,1107.56ZM1998.84,765.079C2016.05,727.092 2058.36,713.334 2091.02,725.89C2126.68,739.597 2138.49,780.803 2128.57,811.024C2117.18,845.685 2075.12,864.439 2033.82,852.827C2002.83,844.116 1985.08,795.467 1998.84,765.079ZM2014.44,777.875C2004.34,799.871 2012.86,832.573 2035.07,840.371C2067.61,851.792 2095.42,837.17 2103.04,810.283C2109.61,787.085 2104.14,760.514 2076.21,752.216C2051.66,744.922 2027.06,750.378 2014.44,777.875ZM1943.81,1112.27C1954.74,1061.46 1962.26,1009.7 1965.91,956.883L1883.15,894.061C1959.34,891.198 2039.81,897.19 2117.24,913.175C2109.36,934.445 2100.72,955.122 2094.5,976.382C2087.52,982.342 2078.92,989.135 2073.08,996.798C2078.7,975.137 2079.96,957.672 2087.18,936.111C2039.1,924.428 1995.25,920.023 1945.27,919.91L1988.94,955.214C1983.96,1018.65 1970.5,1076.21 1956.6,1136.69C1952.5,1128.27 1948.24,1120.08 1943.81,1112.27ZM2042.5,1196.16C2041.19,1190.61 2040.11,1184.95 2039.27,1179.16C2027.93,1100.97 2042.14,1037.36 2073.08,996.798C2055.7,1063.75 2045.82,1130.87 2042.5,1196.16ZM2226.88,1339.92C2226.94,1339.89 2227,1339.87 2227.06,1339.85L2226.88,1339.92C2177.31,1360.89 2091.26,1316.17 2055.13,1232.94C2050.08,1221.31 2045.56,1209.12 2042.5,1196.16C2045.82,1130.87 2055.7,1063.75 2073.08,996.798C2078.92,989.135 2087.52,982.342 2094.5,976.382C2116.96,957.195 2142.85,947.083 2174.47,948.05C2231.15,949.783 2288.99,998.111 2322.25,1088.17C2358.39,963.554 2392.67,838.314 2417.73,709.966L2365.12,625.745C2367.89,620.6 2581.63,686.491 2578.73,695.121C2501.46,941.7 2431.81,1194.96 2341.69,1438.13C2287.19,1420.71 2218.57,1390.18 2167.39,1363.19L2226.88,1339.92ZM2409.12,657.726C2418.29,680.447 2431.15,700.034 2446.74,717.306C2411.81,877.585 2368.33,1038.63 2322.63,1192.12C2317.31,1067.64 2223.14,952.948 2141.76,987.958C2113.7,1000.03 2056.69,1017.35 2064.72,1153C2076.1,1345.07 2239.11,1358.78 2294.13,1287.65L2271.68,1348.58L2211.79,1364.92C2246.85,1382.6 2282.59,1398.47 2319.53,1411.17C2407.18,1180.75 2477.86,942.644 2546.77,703.733C2504.27,685.131 2454.14,666.953 2409.12,657.726ZM2055.13,1232.94C2055.13,1234.29 2055.12,1235.64 2055.12,1236.99L1990.88,1223.73C1989.26,1218.64 1987.56,1213.51 1985.79,1208.34L2041.6,1219.13C2041.81,1211.5 2042.11,1203.84 2042.5,1196.16C2045.56,1209.12 2049.85,1221.41 2055.13,1232.94ZM1985.79,1208.34C1987.56,1213.51 1989.26,1218.64 1990.88,1223.73L1984.5,1222.41L1976.06,1206.46L1985.79,1208.34ZM1943.81,1112.27C1948.24,1120.08 1952.5,1128.27 1956.6,1136.69C1955.97,1139.4 1955.34,1142.1 1954.7,1144.81L1941.89,1121.01C1942.54,1118.1 1943.18,1115.19 1943.81,1112.27ZM1542.66,1178.74C1541.62,1180.89 1540.54,1183.02 1539.45,1185.12C1522.83,1216.95 1457.74,1281.34 1439.7,1267.69C1415.03,1249.02 1436.45,1160.08 1459.4,1126.21C1487.72,1084.44 1535.94,1052.07 1558.01,1084.47C1563.46,1092.48 1564.31,1105.56 1561.94,1120.82C1556.9,1122.92 1551.96,1125.16 1547.12,1127.52C1549.77,1115.93 1550.18,1106.23 1546.82,1101.07C1530.49,1075.96 1486.3,1118.33 1467.78,1152.15C1452.52,1180.03 1428.99,1244.15 1446.68,1256.98C1459.12,1266 1506.64,1214.62 1520.23,1191.87C1523.25,1186.81 1526.38,1181.01 1529.41,1174.83L1542.27,1177.67L1542.66,1178.74ZM1679.64,1078.97C1679.75,1078.93 1679.86,1078.89 1679.97,1078.84C1711.35,1066.11 1780.52,1139.83 1781.93,1153.76C1782.82,1094.58 1824.5,1045.24 1844.07,1039.18C1881.09,1027.72 1915.66,1062.58 1943.81,1112.27C1943.18,1115.19 1942.54,1118.1 1941.89,1121.01L1954.7,1144.81C1955.34,1142.1 1955.97,1139.4 1956.6,1136.69C1967.72,1159.59 1977.56,1184.29 1985.79,1208.34L1976.06,1206.46L1984.5,1222.41L1990.88,1223.73C2006.21,1271.83 2014.65,1315.04 2013.6,1332.7L1950.5,1354.32C1953.81,1341.27 1904.97,1218.88 1877.16,1226.65C1848.58,1234.65 1853,1367.44 1861.55,1374.41L1809.97,1389.82C1814.15,1379.49 1764.6,1264.4 1737.03,1270.33C1716.02,1274.84 1725.63,1409.84 1737.96,1421.28L1650.36,1449.14L1592.69,1314.32L1542.27,1177.67L1487.92,1165.64C1506.03,1150.88 1525.61,1137.99 1547.12,1127.52C1551.96,1125.16 1556.9,1122.92 1561.94,1120.82C1586.83,1110.43 1614.22,1103.19 1644.71,1099.89L1649.67,1110.74C1649.68,1111.1 1649.78,1111.34 1650,1111.45L1649.67,1110.74C1649.66,1109.27 1651.33,1105.87 1654.16,1101.76C1659.63,1093.83 1669.4,1083.27 1679.64,1078.97ZM1526.32,1158.58L1564.25,1167.05C1590.86,1254.45 1632.12,1338.8 1668.54,1423.88L1714.67,1409.22C1709.87,1401.95 1696.41,1243.45 1730.88,1240.59C1765.5,1237.72 1820.12,1354.89 1820.73,1364.17L1840.09,1358.5C1835.95,1342.63 1827.08,1211.67 1871.85,1202.13C1909.45,1194.12 1962.4,1316.65 1961.54,1330.54L1993.62,1321.45C1998.13,1290.9 1929.87,1055.12 1856.47,1062.29C1812.62,1066.57 1790.68,1181.45 1791.06,1197.71C1790.3,1180.73 1719.82,1103.49 1689.12,1108.32C1654.99,1113.69 1662.11,1195.12 1663.35,1204.07C1654.31,1176.82 1643.66,1149.81 1627.98,1123.57C1591.15,1130.12 1559.4,1141.11 1526.32,1158.58ZM1679.64,1078.97C1669.4,1083.27 1659.63,1093.83 1654.16,1101.76C1663.38,1052.81 1652.98,977.405 1578.86,975.206C1542.16,974.117 1475,995.506 1434.17,1054.94C1437.61,1020.5 1443.05,993.471 1460.75,962.091C1418.45,942.019 1377.37,923.564 1329.76,919.153C1337.09,933.837 1347.67,948.521 1363.56,963.204C1330.32,1170.85 1293.44,1373.7 1240.79,1575.82C1214.58,1582.54 1183.12,1592.9 1161.31,1602.67C1209.06,1612.69 1252.37,1622.84 1301.3,1644.85C1316.46,1497.06 1350.71,1350.44 1402.3,1211.68C1399.71,1237.23 1389.31,1289.07 1437.35,1319.97C1479.05,1346.79 1544.27,1299.6 1575.84,1268.65L1583.66,1289.85C1559.69,1311.81 1489.19,1361.72 1437,1342.23C1414.09,1333.67 1399.35,1309.36 1399.35,1309.36C1355.38,1425.54 1335.05,1551.42 1323.01,1670.02C1259.81,1643.56 1186.29,1623.16 1115.97,1606.84C1135.87,1594.44 1202.24,1565.28 1215.08,1560.06C1243.35,1449.62 1269.74,1337.7 1292.19,1224.06C1294.34,1213.16 1296.46,1202.23 1298.54,1191.3C1299.53,1186.09 1300.51,1180.88 1301.49,1175.67C1311.8,1120.37 1316.19,1063.83 1324.88,1007.77C1327.12,993.344 1325.9,972.771 1325.97,955.65C1302.17,933.986 1294.6,908.563 1278.52,884.2C1357.75,887.521 1431.85,912.936 1499.54,949.686L1464.19,1000.15C1478.02,990.262 1504.21,963.545 1543.71,950.923C1562.28,944.989 1587.58,943.6 1611.15,948.612C1625.67,951.701 1661.54,971.34 1674.97,1003.35C1685.9,1029.42 1682.84,1061.04 1679.64,1078.97ZM1292.19,1224.06C1228.62,1271.7 1145.81,1295.23 1065.82,1284.96C1069.12,1280.01 1072.61,1274.39 1076.03,1268.2C1154.03,1276.09 1232.43,1248.19 1298.54,1191.3C1296.46,1202.23 1294.34,1213.16 1292.19,1224.06ZM929.054,1044.78C966.711,972.594 1037.61,928.139 1136.33,906.883C1185.07,899.378 1237.11,902.392 1269.59,922.942C1295.45,939.305 1319.35,980.312 1324.88,1007.77C1316.78,1063.92 1311.8,1120.37 1301.49,1175.67C1271.21,1164.29 1245.09,1143.02 1223.02,1112.83C1195.24,1156.35 1151.68,1172.8 1094.91,1165.55C1093.41,1159.86 1091.45,1154.32 1089.09,1148.94C1135.8,1152.62 1173.95,1140.09 1204.33,1112.85C1162.71,1118.51 1121.89,1125.84 1082.36,1135.89C1079.94,1131.81 1077.29,1127.83 1074.42,1123.97C1141.35,1103.83 1214.78,1086.89 1294.65,1077.19C1299.7,1064.13 1308.67,972.906 1229,939.585C1177.19,917.916 1018,936.433 956.043,1050.04C948.828,1048.44 936.543,1045.95 929.054,1044.78ZM1317.64,1098.89C1292.14,1101.1 1259.83,1103.77 1238.54,1107.04C1255.72,1124.32 1285.87,1140.64 1307.98,1152.71C1313.04,1136.08 1315.54,1117.55 1317.64,1098.89ZM1026.65,1080.15C1041.88,1054.76 1107.01,999.393 1154.01,1025.91C1179.97,1040.55 1187.32,1059.96 1189.44,1065.6C1162.68,1068.51 1137.1,1072.68 1112.77,1077.59C1089,1082.39 1066.41,1087.89 1045.05,1093.61C1042.08,1091.17 1039.02,1088.82 1035.89,1086.53C1074.36,1072.55 1113.77,1061.65 1154.12,1053.8C1156.76,1052.24 1139.96,1044.47 1118.07,1042.93C1084.96,1040.61 1042.84,1076.09 1035.63,1086.35C1032.69,1084.21 1029.7,1082.15 1026.65,1080.15ZM654.639,1256.75C622.717,1307.59 452.596,1445.84 455,1438.34L163.286,629.672C163.286,629.672 304.946,565.296 447.785,563.517C590.624,561.738 714.398,606.142 774.031,679.539C833.871,753.189 836.071,811.378 837.112,871.234C838.181,932.642 804.626,1022.57 794.844,1046.95C794.585,1047.04 794.328,1047.13 794.075,1047.21C787.045,1049.65 778.019,1052.93 767.892,1057.2C777.362,1032.7 806.345,951.149 805.437,897.997C804.529,844.771 802.609,793.029 750.399,727.537C698.369,662.272 594.28,611.746 469.653,613.328C345.026,614.91 228.603,657.405 228.603,657.405L466.742,1397.19C464.641,1403.88 621.392,1284.5 649.282,1239.77C650.73,1245.51 652.525,1251.17 654.639,1256.75ZM439.161,839.939C439.161,839.939 520.507,813.762 580.581,824.593C633.937,834.213 668.912,870.747 676.289,895.641C680.795,910.847 688.433,964.407 648.883,1039.72C609.432,1114.85 502.952,1184.85 502.952,1184.85C478.019,1073.36 456.415,958.718 439.161,839.939ZM469.159,866.803C483.679,966.484 492.604,1063.36 513.586,1156.91C513.586,1156.91 600.549,1096.58 633.749,1033.53C667.032,970.327 659.753,925.353 655.961,912.592C649.753,891.701 623.648,864.342 578.746,856.269C528.191,847.179 469.159,866.803 469.159,866.803ZM777.892,1172.1C780.073,1154.66 882.774,1117.07 922.464,1159.08C952.642,1191.01 942.55,1218.28 942.55,1218.28C889.377,1198.2 833.931,1185.18 777.892,1172.1ZM799.527,1165.3C841.811,1171.65 881.693,1180.64 918.371,1193.18C910.965,1178.52 899.324,1166.08 875.909,1159.83C846.69,1154.33 821.699,1157.37 799.527,1165.3ZM929.054,1044.78C936.543,1045.95 943.947,1047.32 951.163,1048.92C969.254,1052.91 986.158,1058.27 1000.25,1065.16C1009.32,1069.6 1018.19,1074.61 1026.65,1080.15C1029.7,1082.15 1032.69,1084.21 1035.63,1086.35C1035.54,1086.47 1035.45,1086.6 1035.37,1086.72C1035.54,1086.66 1035.71,1086.6 1035.89,1086.53C1039.02,1088.82 1042.08,1091.17 1045.05,1093.61C1056.2,1102.72 1066.18,1112.88 1074.42,1123.97C1077.29,1127.83 1079.94,1131.81 1082.36,1135.89C1084.87,1140.13 1087.12,1144.48 1089.09,1148.94C1091.45,1154.32 1093.41,1159.86 1094.91,1165.55C1098.21,1178.12 1099.27,1191.43 1097.55,1205.39C1094.62,1229.14 1085.59,1250.89 1076.03,1268.2C1072.61,1274.39 1069.12,1280.01 1065.82,1284.96C1056.11,1299.5 1048.02,1308.18 1048.02,1308.18C1021.25,1297.79 994.276,1287.91 967.097,1278.56C967.044,1278.54 966.51,1278.36 965.612,1278.05C954.971,1274.4 944.297,1270.84 933.591,1267.36C885.679,1251.78 837.114,1237.9 787.83,1225.89C787.83,1225.89 813.166,1248.45 855.715,1263.77C898.263,1279.09 933.591,1267.36 933.591,1267.36C933.591,1267.36 959.116,1275.86 965.612,1278.05C966.107,1278.22 966.602,1278.39 967.097,1278.56C967.924,1278.93 980.613,1335.1 1033.17,1390.96C988.41,1417.56 857.173,1411.91 821.543,1398.75C750.932,1378.09 679.924,1323.5 654.639,1256.75C652.525,1251.17 650.73,1245.51 649.282,1239.77C644.638,1221.36 643.559,1202.21 646.936,1182.74C661.769,1097.21 756.475,1060.25 794.075,1047.21C794.328,1047.13 794.585,1047.04 794.844,1046.95C820.185,1038.52 876.701,1036.6 929.054,1044.78ZM1032.17,1278.02C1053.71,1267.63 1071.1,1180.19 1048.02,1144.81C1020.81,1103.1 941.684,1054.92 825.649,1068.75C744.278,1078.45 677.72,1127.65 664.884,1193.9C653.933,1250.42 715.369,1346.53 805.959,1374.04C867.225,1392.65 929.757,1397.74 994.945,1378.68C971.069,1349.42 956.428,1312.68 950.82,1273.63C893.744,1318.83 798.995,1285.25 758.549,1212.19C845.549,1223.13 943.024,1246.76 1032.17,1278.02ZM1325.09,1008.71C1324.99,1008.87 1322.77,1019.03 1322.85,1020.68C1323.11,1026.7 1321.64,1028.05 1321.41,1032.79C1321.19,1037.22 1320.86,1037.16 1320.16,1041.54M2044.14,1199.47C2043.86,1199.86 2045.11,1206.76 2045.31,1207.63C2045.59,1208.83 2048.38,1217.08 2048.62,1217.57C2049.37,1219.06 2050.12,1219.9 2052.32,1226.37C2053.26,1229.15 2053.52,1229.03 2054.34,1231.65"/>
            <path d="M278.206,684.47L486.519,1355.02C575.189,1305.32 826.222,1019.79 767.288,832.576C701.038,622.124 371.141,638.007 278.206,684.47ZM682.521,1204.37C681.495,1116.4 826.969,1075.43 885.329,1084.77C1025.44,1107.18 1058.46,1182.9 1025.55,1261.38C935.839,1226.82 820.935,1198.34 737.591,1199.87C751.688,1264.92 862.844,1340.83 939.82,1298.78L963.312,1364.93C912.246,1391.52 684.388,1364.44 682.521,1204.37ZM965.275,1060.33C1091.46,902.783 1285.86,927.758 1281.46,1066.02C1212.3,1075.73 1133.63,1088.8 1054.94,1114.89M1080.25,1175.82C1112.77,1198.76 1205.08,1173.25 1223.98,1140.35C1237.42,1162.41 1254.83,1178.09 1283.07,1186.41C1214.09,1239.75 1144.84,1265.55 1070.57,1253.94M1579.69,1239.05C1565.7,1274.47 1490.59,1320.53 1460.64,1315.16C1400.3,1304.35 1406.93,1189.53 1411.58,1176.08L1411.76,1175.73C1411.7,1175.78 1411.64,1175.89 1411.58,1176.08C1342.01,1311.9 1311.35,1476.94 1289.88,1624.1C1264.98,1612.43 1239.11,1603.93 1209.36,1599.86L1251.72,1586.75C1307.88,1383.31 1344.78,1173.12 1387.37,964.792C1375.42,958.45 1364.68,950.258 1359.96,941.802C1387.38,949.141 1415.51,959.139 1440.58,971.853C1421.96,1014.2 1423.9,1050.34 1423.82,1088.21C1431.72,1060.71 1529.09,980.82 1588.19,998.92C1629.73,1011.64 1641.68,1059.3 1633.64,1113.94M1824.54,1352.87C1818.17,1330.75 1759.96,1213.88 1720.33,1224.78C1692.81,1232.34 1692.28,1396.45 1697.98,1397.38L1676.25,1405.46L1626.67,1289.73L1580.64,1163.36L1564.33,1157.65C1583.44,1149.77 1602.54,1144.15 1621.65,1141.18C1640.58,1176.21 1655.92,1212.37 1669.24,1249.17C1669.24,1249.17 1673.51,1137.05 1691.02,1127.01C1719.57,1110.64 1799.43,1222.24 1795.43,1228.8C1795.43,1228.8 1826.41,1082.74 1860.8,1077.73C1895.32,1072.7 1969.61,1231.73 1986.32,1312.63L1971.65,1316.55C1967.83,1298.22 1915.39,1187.21 1868.88,1193.48C1821.65,1199.85 1820.49,1331.1 1831.51,1351.13L1824.54,1352.87ZM1963.71,1165.18C1983.57,1097.13 1993.02,1025.1 2004.93,955C1995.86,947.129 1989.87,941.48 1980.05,933.448C2013.62,935.633 2040.87,939.081 2072.2,948.59C2049.46,1032.92 2037.55,1115.84 2027.86,1203.2C2027.86,1203.2 1973.77,1191.87 1971.29,1192.56M2049.43,832.541C2033.81,829.965 2019.39,818.043 2021.74,793.948C2023.62,774.604 2040.05,760.428 2057.75,761.517C2072.6,762.431 2094.59,777.914 2091.74,798.015C2087.45,828.234 2068.77,835.73 2049.43,832.541ZM2441.49,685.286C2474.65,693.955 2498.89,699.388 2528.19,715.614C2460.37,943.624 2392.29,1170.67 2312.91,1392.87C2290.3,1387.47 2271.81,1380.33 2251.03,1368.52L2280.98,1360.29C2294.84,1330.17 2305.75,1297.95 2305.78,1263.8C2295.23,1283.17 2259.3,1319.3 2200.91,1316.5C2047.92,1309.17 2039.27,1023.25 2159.23,996.326C2254.99,974.837 2321,1183.54 2317.02,1227.57C2374.94,1063.92 2421.34,894.1 2466.27,722.089L2441.49,685.286Z" style="fill:none;stroke:black;stroke-width:4px;"/>
        </g>
    </g>
    <defs>
        <linearGradient id="_Linear2" x1="0" y1="0" x2="1" y2="0" gradientUnits="userSpaceOnUse" gradientTransform="matrix(-11.3909,652.856,-690.733,-10.7663,1382.03,487.505)"><stop offset="0" style="stop-color:rgb(196,150,250);stop-opacity:1"/><stop offset="1" style="stop-color:rgb(122,47,210);stop-opacity:1"/></linearGradient>
        <linearGradient id="_Linear4" x1="0" y1="0" x2="1" y2="0" gradientUnits="userSpaceOnUse" gradientTransform="matrix(-1.40351,895.988,-895.988,-1.40351,1514.36,454.544)"><stop offset="0" style="stop-color:rgb(255,253,227);stop-opacity:1"/><stop offset="1" style="stop-color:rgb(248,229,97);stop-opacity:1"/></linearGradient>
    </defs>
</svg>
